<svg width="156" height="89" viewBox="0 0 156 89" fill="none" xmlns="http://www.w3.org/2000/svg">
<path opacity="0.4" d="M36.2679 43.5522C47.47 43.5522 56.5512 33.905 56.5512 22.0045C56.5512 10.104 47.47 0.456726 36.2679 0.456726C25.0658 0.456726 15.9847 10.104 15.9847 22.0045C15.9847 33.905 25.0658 43.5522 36.2679 43.5522Z" fill="#292D32"/>
<path d="M99.8739 88.4049H0.371424C0.246951 88.4063 0.122622 88.3955 0 88.3728L47.062 1.77758C47.3491 1.23807 47.7659 0.789202 48.2698 0.476887C48.7736 0.164573 49.3466 0 49.9299 0C50.5133 0 51.0862 0.164573 51.59 0.476887C52.0939 0.789202 52.5107 1.23807 52.7977 1.77758L84.3807 59.8901L85.8946 62.6703L99.8739 88.4049Z" fill="#292D32"/>
<path d="M155.274 88.4061H69.2115L85.8877 62.6736L87.0876 60.8198L108.819 27.2839C109.204 26.7708 109.685 26.3494 110.233 26.0471C110.781 25.7448 111.382 25.5684 111.998 25.5294C112.614 25.4904 113.231 25.5896 113.809 25.8206C114.387 26.0515 114.912 26.4091 115.351 26.87C115.464 27.0008 115.568 27.139 115.664 27.2839L155.274 88.4061Z" fill="#292D32"/>
</svg>
