<svg width="24" height="24" viewBox="0 0 24 24" fill="none" xmlns="http://www.w3.org/2000/svg">
<path d="M21.68 15.32C20.79 14.43 19.61 13.98 18.44 14C17.31 14.01 16.18 14.46 15.32 15.32C14.72 15.91 14.33 16.65 14.14 17.42C14.03 17.84 13.99 18.27 14.02 18.7V18.75C14.02 18.82 14.03 18.8801 14.04 18.9601C14.04 18.9601 14.04 18.96 14.05 18.97V19C14.14 19.98 14.56 20.93 15.32 21.68C16.48 22.84 18.11 23.23 19.58 22.86C20.02 22.75 20.45 22.57 20.85 22.33C21.15 22.16 21.43 21.94 21.68 21.68C22.43 20.93 22.86 19.98 22.95 18.99C22.96 18.99 22.96 18.9701 22.96 18.9601C22.98 18.8901 22.98 18.81 22.98 18.74C22.98 18.73 22.99 18.71 22.99 18.69C23.05 17.48 22.61 16.24 21.68 15.32ZM20.23 20.2101C19.94 20.5001 19.47 20.5001 19.17 20.2101L18.51 19.55L17.83 20.23C17.53 20.53 17.06 20.53 16.77 20.23C16.47 19.94 16.47 19.47 16.77 19.17L17.45 18.49L16.79 17.83C16.5 17.53 16.5 17.06 16.79 16.77C17.09 16.47 17.56 16.47 17.86 16.77L18.51 17.43L19.14 16.79C19.44 16.5 19.91 16.5 20.21 16.79C20.5 17.09 20.5 17.56 20.21 17.86L19.57 18.49L20.23 19.14C20.53 19.44 20.53 19.9101 20.23 20.2101Z" fill="#292D32"/>
<path opacity="0.4" d="M19.35 5.65995L13.06 2.27C12.4 1.91 11.6 1.91 10.93 2.27L4.64001 5.65995C4.18001 5.90995 3.89999 6.39998 3.89999 6.93998C3.89999 7.47998 4.18001 7.96995 4.64001 8.21995L10.93 11.61C11.26 11.79 11.63 11.88 11.99 11.88C12.35 11.88 12.72 11.79 13.05 11.61L19.34 8.21995C19.8 7.96995 20.08 7.47998 20.08 6.93998C20.1 6.39998 19.81 5.90995 19.35 5.65995Z" fill="#292D32"/>
<path opacity="0.4" d="M9.89999 12.79L4.04999 9.86001C3.59999 9.63001 3.07999 9.66001 2.64999 9.92001C2.21999 10.18 1.97 10.64 1.97 11.14V16.67C1.97 17.63 2.49999 18.49 3.35999 18.92L9.20999 21.8401C9.40999 21.9401 9.63001 21.99 9.85001 21.99C10.11 21.99 10.37 21.92 10.6 21.77C11.03 21.51 11.28 21.05 11.28 20.55V15.02C11.29 14.08 10.76 13.22 9.89999 12.79Z" fill="#292D32"/>
<path opacity="0.4" d="M22.03 11.15V15.74C22.02 15.73 22.01 15.71 22 15.7C22 15.69 21.99 15.68 21.98 15.67C21.94 15.61 21.89 15.55 21.84 15.5C21.83 15.49 21.82 15.47 21.81 15.46C21 14.56 19.81 14 18.5 14C17.24 14 16.09 14.52 15.27 15.36C14.48 16.17 14 17.28 14 18.5C14 19.34 14.24 20.14 14.65 20.82C14.82 21.11 15.03 21.37 15.26 21.61L14.79 21.85C14.59 21.95 14.37 22 14.15 22C13.89 22 13.63 21.93 13.39 21.78C12.97 21.52 12.71 21.06 12.71 20.56V15.04C12.71 14.08 13.24 13.22 14.1 12.79L19.95 9.87C20.4 9.64 20.92 9.66 21.35 9.93C21.77 10.19 22.03 10.65 22.03 11.15Z" fill="#292D32"/>
</svg>

