<svg width="24" height="24" viewBox="0 0 24 24" fill="none" xmlns="http://www.w3.org/2000/svg">
<path opacity="0.4" d="M15 22.75C14.73 22.75 14.48 22.6 14.35 22.37C14.22 22.14 14.22 21.85 14.36 21.62L15.41 19.87C15.62 19.51 16.08 19.4 16.44 19.61C16.8 19.82 16.91 20.28 16.7 20.64L16.43 21.09C19.19 20.44 21.26 17.96 21.26 15C21.26 14.59 21.6 14.25 22.01 14.25C22.42 14.25 22.76 14.59 22.76 15C22.75 19.27 19.27 22.75 15 22.75Z" fill="#292D32"/>
<path opacity="0.4" d="M2 9.75C1.59 9.75 1.25 9.41 1.25 9C1.25 4.73 4.73 1.25 9 1.25C9.27 1.25 9.51999 1.4 9.64999 1.63C9.77999 1.86 9.78 2.15 9.64 2.38L8.59 4.13C8.38 4.49 7.92 4.60001 7.56 4.39001C7.2 4.18001 7.09 3.71999 7.3 3.35999L7.57001 2.90997C4.81001 3.55997 2.74001 6.04 2.74001 9C2.75001 9.41 2.41 9.75 2 9.75Z" fill="#292D32"/>
<path d="M10.67 13.85L7.53 12.16C7.2 11.98 6.8 11.98 6.47 12.16L3.33 13.85C3.1 13.97 2.96001 14.22 2.96001 14.49C2.96001 14.76 3.1 15.01 3.33 15.13L6.47 16.82C6.64 16.91 6.82 16.95 7 16.95C7.18 16.95 7.36 16.91 7.53 16.82L10.67 15.13C10.9 15.01 11.04 14.76 11.04 14.49C11.04 14.22 10.89 13.98 10.67 13.85Z" fill="#292D32"/>
<path d="M5.95 17.41L3.03 15.95C2.81 15.84 2.55 15.85 2.33 15.98C2.12 16.11 1.99001 16.34 1.99001 16.59V19.35C1.99001 19.83 2.24999 20.26 2.67999 20.47L5.60001 21.93C5.70001 21.98 5.81 22.01 5.92 22.01C6.05 22.01 6.18 21.97 6.3 21.9C6.51 21.77 6.64 21.54 6.64 21.29V18.53C6.65 18.05 6.38 17.62 5.95 17.41Z" fill="#292D32"/>
<path d="M11.66 15.98C11.45 15.85 11.19 15.84 10.96 15.95L8.03999 17.41C7.60999 17.62 7.35001 18.05 7.35001 18.53V21.29C7.35001 21.54 7.48 21.77 7.69 21.9C7.81 21.97 7.94001 22.01 8.07001 22.01C8.18001 22.01 8.29 21.98 8.39 21.93L11.31 20.47C11.74 20.26 12 19.83 12 19.35V16.59C12 16.34 11.87 16.11 11.66 15.98Z" fill="#292D32"/>
<path d="M20.67 3.83001L17.53 2.14C17.2 1.96 16.8 1.96 16.47 2.14L13.33 3.83001C13.1 3.95001 12.96 4.19996 12.96 4.46996C12.96 4.73996 13.1 4.98998 13.33 5.10998L16.47 6.79998C16.64 6.88998 16.82 6.92998 17 6.92998C17.18 6.92998 17.36 6.88998 17.53 6.79998L20.67 5.10998C20.9 4.98998 21.04 4.73996 21.04 4.46996C21.04 4.18996 20.89 3.95001 20.67 3.83001Z" fill="#292D32"/>
<path d="M15.95 7.37999L13.03 5.91997C12.81 5.80997 12.55 5.82 12.33 5.95C12.12 6.08 11.99 6.30999 11.99 6.55999V9.32C11.99 9.8 12.25 10.23 12.68 10.44L15.6 11.9C15.7 11.95 15.81 11.98 15.92 11.98C16.05 11.98 16.18 11.94 16.3 11.87C16.51 11.74 16.64 11.51 16.64 11.26V8.49999C16.65 8.01999 16.38 7.58999 15.95 7.37999Z" fill="#292D32"/>
<path d="M21.66 5.95C21.45 5.82 21.19 5.80997 20.96 5.91997L18.04 7.37999C17.61 7.58999 17.35 8.01999 17.35 8.49999V11.26C17.35 11.51 17.48 11.74 17.69 11.87C17.81 11.94 17.94 11.98 18.07 11.98C18.18 11.98 18.29 11.95 18.39 11.9L21.31 10.44C21.74 10.23 22 9.8 22 9.32V6.55999C22 6.30999 21.87 6.08 21.66 5.95Z" fill="#292D32"/>
</svg>

