<svg width="24" height="24" viewBox="0 0 24 24" fill="none" xmlns="http://www.w3.org/2000/svg">
<path opacity="0.4" d="M16.19 8.86001C15.8 8.86001 15.49 8.55001 15.49 8.16001V6.88001C15.49 5.90001 15.07 4.96001 14.35 4.30001C13.61 3.63001 12.66 3.32001 11.66 3.41001C9.98 3.57001 8.51 5.28001 8.51 7.06001V7.96001C8.51 8.35001 8.2 8.66001 7.81 8.66001C7.42 8.66001 7.11 8.35001 7.11 7.96001V7.06001C7.11 4.56001 9.13 2.25001 11.52 2.02001C12.91 1.89001 14.25 2.33001 15.28 3.27001C16.3 4.19001 16.88 5.51001 16.88 6.88001V8.16001C16.88 8.55001 16.57 8.86001 16.19 8.86001Z" fill="#292D32"/>
<path d="M19.96 8.96C19.12 8.03 17.74 7.58 15.72 7.58H8.28C6.26 7.58 4.88 8.03 4.04 8.96C3.07 10.04 3.1 11.48 3.21 12.48L3.91 18.05C4.12 20 4.91 22 9.21 22H14.79C19.09 22 19.88 20 20.09 18.06L20.79 12.47C20.9 11.48 20.92 10.04 19.96 8.96ZM8.42 13.15H8.41C7.86 13.15 7.41 12.7 7.41 12.15C7.41 11.6 7.86 11.15 8.41 11.15C8.97 11.15 9.42 11.6 9.42 12.15C9.42 12.7 8.97 13.15 8.42 13.15ZM15.42 13.15H15.41C14.86 13.15 14.41 12.7 14.41 12.15C14.41 11.6 14.86 11.15 15.41 11.15C15.97 11.15 16.42 11.6 16.42 12.15C16.42 12.7 15.97 13.15 15.42 13.15Z" fill="#292D32"/>
</svg>
