<svg width="20" height="20" viewBox="0 0 20 20" fill="none" xmlns="http://www.w3.org/2000/svg">
<path opacity="0.4" d="M4.9403 18.63C6.4303 19.5 8.1603 20 10.0003 20C15.6303 20 20.3103 15.03 19.9803 9.40997C19.6403 3.60997 14.3703 -0.860039 8.30029 0.139961C4.12029 0.829961 0.770293 4.21996 0.120293 8.39996C-0.259707 10.82 0.240315 13.11 1.33031 15L0.4403 18.31C0.2403 19.06 0.93028 19.74 1.67028 19.53L4.9403 18.63Z" fill="#292D32"/>
<path d="M15 13.17C15 13.35 14.96 13.54 14.87 13.72C14.78 13.9 14.67 14.07 14.53 14.23C14.28 14.5 14.01 14.7 13.71 14.82C13.41 14.95 13.08 15.01 12.73 15.01C12.22 15.01 11.67 14.89 11.1 14.64C10.52 14.39 9.95001 14.06 9.38 13.65C8.8 13.23 8.25999 12.76 7.73999 12.25C7.21999 11.73 6.76003 11.18 6.34003 10.61C5.93003 10.04 5.59999 9.46998 5.35999 8.89998C5.11999 8.32998 5 7.77998 5 7.25998C5 6.91998 5.05999 6.58998 5.17999 6.28998C5.29999 5.97998 5.49001 5.69997 5.76001 5.44997C6.08001 5.12997 6.42999 4.97998 6.79999 4.97998C6.93999 4.97998 7.08002 5.00998 7.21002 5.06998C7.34002 5.12998 7.45999 5.21998 7.54999 5.34998L8.70001 6.99998C8.79001 7.12998 8.86002 7.23998 8.90002 7.34998C8.95002 7.45998 8.96997 7.55998 8.96997 7.65998C8.96997 7.77998 8.92999 7.89997 8.85999 8.01997C8.78999 8.13997 8.70002 8.25997 8.58002 8.37997L8.20001 8.77998C8.14001 8.83998 8.12 8.89998 8.12 8.97998C8.12 9.01998 8.13001 9.05998 8.14001 9.09998C8.16001 9.13998 8.16999 9.16997 8.17999 9.19997C8.26999 9.36997 8.43002 9.57997 8.65002 9.83997C8.88002 10.1 9.12 10.37 9.38 10.63C9.65 10.9 9.90999 11.14 10.18 11.37C10.44 11.59 10.66 11.74 10.83 11.83C10.86 11.84 10.89 11.86 10.92 11.87C10.96 11.89 11 11.89 11.05 11.89C11.14 11.89 11.2 11.86 11.26 11.8L11.64 11.42C11.77 11.29 11.89 11.2 12 11.14C12.12 11.07 12.23 11.03 12.36 11.03C12.46 11.03 12.56 11.05 12.67 11.1C12.78 11.15 12.9 11.21 13.02 11.3L14.68 12.48C14.81 12.57 14.9 12.68 14.96 12.8C14.97 12.91 15 13.03 15 13.17Z" fill="#292D32"/>
</svg>
